<svg width="18" height="20" viewBox="0 0 18 20" fill="none" xmlns="http://www.w3.org/2000/svg">
<path fill-rule="evenodd" clip-rule="evenodd" d="M8.99879 0C6.35682 0 4.20703 2.14979 4.20703 4.79176C4.20703 7.43372 6.35681 9.58333 8.99879 9.58333C11.6408 9.58333 13.7905 7.43372 13.7905 4.79176C13.7905 2.14979 11.6408 0 8.99879 0ZM5.27428 4.79176C5.27428 2.73768 6.94491 1.06724 8.99879 1.06724C11.0527 1.06724 12.7233 2.73768 12.7233 4.79176C12.7233 6.84566 11.0527 8.51609 8.99879 8.51609C6.94492 8.51609 5.27428 6.84566 5.27428 4.79176Z" fill="white"/>
<path fill-rule="evenodd" clip-rule="evenodd" d="M4.9632 11.6665C2.59407 11.6665 0.666016 13.6453 0.666016 16.0768V19.4881C0.666016 19.7705 0.889437 19.9998 1.16459 19.9998H16.8341C17.1093 19.9998 17.3327 19.7705 17.3327 19.4881V16.0768C17.3327 13.6453 15.4046 11.6665 13.0355 11.6665H4.9632ZM1.66317 16.0768C1.66317 14.2092 3.14351 12.6899 4.9632 12.6899H13.0355C14.8552 12.6899 16.3355 14.2092 16.3355 16.0768V18.9764H1.66317V16.0768Z" fill="white"/>
</svg>
